REM DIRINDEX 1\8,1\2\11,1\3\12,1\3\14,1\5\15,1\5\16,1\6\17,1\6\18,1\4\19,1\4\20,1\4\21,1\4\22,1\7\23,1\7\24,1\7\25,1\2\9\26,1\2\9\27,1\2\10\28,1\2\10\29,1\2\10\30,1\2\10\31,1\2\10\32,1\3\13\33,1\3\13\34,1\3\13\35
REM DIRNAME folder01,folder02,folder03,folder04,folder05,folder06,folder07,folder08,folder09,folder10,folder11,folder12,folder13,folder14,folder15,folder16,folder17,folder18,folder19,folder20,folder21,folder22,folder23,folder24,folder25,folder26,folder27,folder28,folder29,folder30,folder31,folder32,folder33,folder34,folder35
TITLE ""
FILE "149 149_—á•¶UNIT5_SET3.mp3" MP3
  TRACK 01 AUDIO
    TITLE "22:cjc123_3831"
    INDEX 01 00:00:00
  TRACK 02 AUDIO
    TITLE "0:"
    INDEX 01 00:02:55
  TRACK 03 AUDIO
    TITLE "19:cjc123_3832"
    INDEX 01 00:03:31
  TRACK 04 AUDIO
    TITLE "0:"
    INDEX 01 00:07:52
  TRACK 05 AUDIO
    TITLE "20:cjc123_3833"
    INDEX 01 00:08:13
  TRACK 06 AUDIO
    TITLE "0:"
    INDEX 01 00:12:52
  TRACK 07 AUDIO
    TITLE "21:cjc123_3834"
    INDEX 01 00:13:02
  TRACK 08 AUDIO
    TITLE "0:"
    INDEX 01 00:17:25
  TRACK 09 AUDIO
    TITLE "19:cjc123_3835"
    INDEX 01 00:18:05
  TRACK 10 AUDIO
    TITLE "0:"
    INDEX 01 00:25:05
  TRACK 11 AUDIO
    TITLE "20:cjc123_3836"
    INDEX 01 00:25:50
  TRACK 12 AUDIO
    TITLE "0:"
    INDEX 01 00:31:59
  TRACK 13 AUDIO
    TITLE "21:cjc123_3837"
    INDEX 01 00:32:09
  TRACK 14 AUDIO
    TITLE "0:"
    INDEX 01 00:39:07
  TRACK 15 AUDIO
    TITLE "19:cjc123_3838"
    INDEX 01 00:39:66
  TRACK 16 AUDIO
    TITLE "0:"
    INDEX 01 00:46:13
  TRACK 17 AUDIO
    TITLE "20:cjc123_3839"
    INDEX 01 00:46:49
  TRACK 18 AUDIO
    TITLE "0:"
    INDEX 01 00:52:43
  TRACK 19 AUDIO
    TITLE "21:cjc123_3840"
    INDEX 01 00:52:71
  TRACK 20 AUDIO
    TITLE "0:"
    INDEX 01 00:59:16
  TRACK 21 AUDIO
    TITLE "19:cjc123_3841"
    INDEX 01 00:59:65
  TRACK 22 AUDIO
    TITLE "0:"
    INDEX 01 01:03:65
  TRACK 23 AUDIO
    TITLE "20:cjc123_3842"
    INDEX 01 01:04:21
  TRACK 24 AUDIO
    TITLE "0:"
    INDEX 01 01:09:34
  TRACK 25 AUDIO
    TITLE "21:cjc123_3843"
    INDEX 01 01:09:61
  TRACK 26 AUDIO
    TITLE "0:"
    INDEX 01 01:13:61
  TRACK 27 AUDIO
    TITLE "19:cjc123_3844"
    INDEX 01 01:14:61
  TRACK 28 AUDIO
    TITLE "0:"
    INDEX 01 01:21:08
  TRACK 29 AUDIO
    TITLE "20:cjc123_3845"
    INDEX 01 01:21:43
  TRACK 30 AUDIO
    TITLE "0:"
    INDEX 01 01:27:10
  TRACK 31 AUDIO
    TITLE "21:cjc123_3846"
    INDEX 01 01:27:40
  TRACK 32 AUDIO
    TITLE "0:"
    INDEX 01 01:33:62
  TRACK 33 AUDIO
    TITLE "19:cjc123_3847"
    INDEX 01 01:34:40
  TRACK 34 AUDIO
    TITLE "0:"
    INDEX 01 01:39:68
  TRACK 35 AUDIO
    TITLE "20:cjc123_3848"
    INDEX 01 01:40:35
  TRACK 36 AUDIO
    TITLE "0:"
    INDEX 01 01:46:35
  TRACK 37 AUDIO
    TITLE "21:cjc123_3849"
    INDEX 01 01:46:61
  TRACK 38 AUDIO
    TITLE "0:"
    INDEX 01 01:52:16
  TRACK 39 AUDIO
    TITLE "19:cjc123_3850"
    INDEX 01 01:53:00
  TRACK 40 AUDIO
    TITLE "0:"
    INDEX 01 01:58:19
  TRACK 41 AUDIO
    TITLE "20:cjc123_3851"
    INDEX 01 01:58:54
  TRACK 42 AUDIO
    TITLE "0:"
    INDEX 01 02:04:25
  TRACK 43 AUDIO
    TITLE "21:cjc123_3852"
    INDEX 01 02:04:55
  TRACK 44 AUDIO
    TITLE "0:"
    INDEX 01 02:09:73
  TRACK 45 AUDIO
    TITLE "19:cjc123_3853"
    INDEX 01 02:10:49
  TRACK 46 AUDIO
    TITLE "0:"
    INDEX 01 02:16:13
  TRACK 47 AUDIO
    TITLE "20:cjc123_3854"
    INDEX 01 02:16:46
  TRACK 48 AUDIO
    TITLE "0:"
    INDEX 01 02:22:29
  TRACK 49 AUDIO
    TITLE "21:cjc123_3855"
    INDEX 01 02:22:56
  TRACK 50 AUDIO
    TITLE "0:"
    INDEX 01 02:28:20
  TRACK 51 AUDIO
    TITLE "19:cjc123_3856"
    INDEX 01 02:28:69
  TRACK 52 AUDIO
    TITLE "0:"
    INDEX 01 02:34:07
  TRACK 53 AUDIO
    TITLE "20:cjc123_3857"
    INDEX 01 02:34:38
  TRACK 54 AUDIO
    TITLE "0:"
    INDEX 01 02:40:13
  TRACK 55 AUDIO
    TITLE "21:cjc123_3858"
    INDEX 01 02:40:43
  TRACK 56 AUDIO
    TITLE "0:"
    INDEX 01 02:45:56
  TRACK 57 AUDIO
    TITLE "19:cjc123_3859"
    INDEX 01 02:46:33
  TRACK 58 AUDIO
    TITLE "0:"
    INDEX 01 02:52:52
  TRACK 59 AUDIO
    TITLE "20:cjc123_3860"
    INDEX 01 02:53:14
  TRACK 60 AUDIO
    TITLE "0:"
    INDEX 01 02:59:01
  TRACK 61 AUDIO
    TITLE "21:cjc123_3861"
    INDEX 01 02:59:30
  TRACK 62 AUDIO
    TITLE "0:"
    INDEX 01 03:05:46
  TRACK 63 AUDIO
    TITLE "19:cjc123_3862"
    INDEX 01 03:06:46
  TRACK 64 AUDIO
    TITLE "0:"
    INDEX 01 03:13:05
  TRACK 65 AUDIO
    TITLE "20:cjc123_3863"
    INDEX 01 03:13:38
  TRACK 66 AUDIO
    TITLE "0:"
    INDEX 01 03:20:07
  TRACK 67 AUDIO
    TITLE "21:cjc123_3864"
    INDEX 01 03:20:40
  TRACK 68 AUDIO
    TITLE "0:"
    INDEX 01 03:27:01
  TRACK 69 AUDIO
    TITLE "19:cjc123_3865"
    INDEX 01 03:27:48
  TRACK 70 AUDIO
    TITLE "0:"
    INDEX 01 03:33:13
  TRACK 71 AUDIO
    TITLE "20:cjc123_3866"
    INDEX 01 03:33:51
  TRACK 72 AUDIO
    TITLE "0:"
    INDEX 01 03:40:17
  TRACK 73 AUDIO
    TITLE "21:cjc123_3867"
    INDEX 01 03:40:45
  TRACK 74 AUDIO
    TITLE "0:"
    INDEX 01 03:46:10
  TRACK 75 AUDIO
    TITLE "19:cjc123_3868"
    INDEX 01 03:46:65
  TRACK 76 AUDIO
    TITLE "0:"
    INDEX 01 03:52:11
  TRACK 77 AUDIO
    TITLE "20:cjc123_3869"
    INDEX 01 03:52:44
  TRACK 78 AUDIO
    TITLE "0:"
    INDEX 01 03:57:10
  TRACK 79 AUDIO
    TITLE "21:cjc123_3870"
    INDEX 01 03:57:39
  TRACK 80 AUDIO
    TITLE "0:"
    INDEX 01 04:02:58
  TRACK 81 AUDIO
    TITLE "19:cjc123_3871"
    INDEX 01 04:03:54
  TRACK 82 AUDIO
    TITLE "0:"
    INDEX 01 04:10:52
  TRACK 83 AUDIO
    TITLE "20:cjc123_3872"
    INDEX 01 04:11:10
  TRACK 84 AUDIO
    TITLE "0:"
    INDEX 01 04:16:47
  TRACK 85 AUDIO
    TITLE "21:cjc123_3873"
    INDEX 01 04:17:07
  TRACK 86 AUDIO
    TITLE "0:"
    INDEX 01 04:24:05
  TRACK 87 AUDIO
    TITLE "19:cjc123_3874"
    INDEX 01 04:24:56
  TRACK 88 AUDIO
    TITLE "0:"
    INDEX 01 04:29:32
  TRACK 89 AUDIO
    TITLE "20:cjc123_3875"
    INDEX 01 04:29:67
  TRACK 90 AUDIO
    TITLE "0:"
    INDEX 01 04:34:70
  TRACK 91 AUDIO
    TITLE "21:cjc123_3876"
    INDEX 01 04:35:22
  TRACK 92 AUDIO
    TITLE "0:"
    INDEX 01 04:39:73
